<?xml version="1.0" encoding="UTF-8"?>
<svg width="1024" height="1024" viewBox="0 0 1024 1024" xmlns="http://www.w3.org/2000/svg">
  <rect width="1024" height="1024" fill="#2089dc"/>
  <path d="M512 192c-176.73 0-320 143.27-320 320s143.27 320 320 320 320-143.27 320-320-143.27-320-320-320zm0 560c-132.55 0-240-107.45-240-240s107.45-240 240-240 240 107.45 240 240-107.45 240-240 240z" fill="#ffffff"/>
  <path d="M512 352c-88.37 0-160 71.63-160 160s71.63 160 160 160 160-71.63 160-160-71.63-160-160-160zm0 240c-44.18 0-80-35.82-80-80s35.82-80 80-80 80 35.82 80 80-35.82 80-80 80z" fill="#ffffff"/>
</svg> 